# xmcd
# 
# Track frame offsets:
#     150
#     4677
#     21319
#     39144
#     55430
#     74304
#     99238
#     113043
#     131379
#     147796
#     170884
#     197613
#     211416
#     227893
#     240036
# 
# Disc length: 3425
# 
# Revision: 0
# Processed by: cddbd v1.5.2PL0 Copyright (c) Steve Scherf et al.
# Submitted via: fre:ac v1.0.31
# 
DISCID=c20d5f0f
DTITLE=Velvet Opera - Ride a Hustler's Dream
DYEAR=1969
DGENRE=Psychedelic/Acid
TTITLE0=Ride a Hustler's Dream
TTITLE1=Statesboro Blues
TTITLE2=Money By
TTITLE3=Black Jack Davy
TTITLE4=Raise the Light
TTITLE5=Raga
TTITLE6=Anna Dance Square
TTITLE7=Depression
TTITLE8=Don't You Realize
TTITLE9=Warm Day in July
TTITLE10=Eleanor Rigby
TTITLE11=Anna Dance Square (Mono Single Mix)
TTITLE12=Don't You Realize (Mono Single Mix)
TTITLE13=She Keeps Giving Me These Feelings
TTITLE14=There's a Hole in My Pocke
EXTD=
EXTT0=
EXTT1=
EXTT2=
EXTT3=
EXTT4=
EXTT5=
EXTT6=
EXTT7=
EXTT8=
EXTT9=
EXTT10=
EXTT11=
EXTT12=
EXTT13=
EXTT14=
PLAYORDER=
